<svg xmlns="http://www.w3.org/2000/svg" viewBox="0 0 1082 1106">
<style>
  path { fill: #24282b; }
  @media (prefers-color-scheme: dark) { path { fill: #f2f3f4; } }
</style>
<g transform="translate(0,1106) scale(0.1,-0.1)">
<path d="M3729 10482 c-51 -24 -79 -49 -126 -112 -48 -64 -71 -113 -112 -236
-53 -162 -95 -355 -111 -512 -5 -57 -12 -108 -15 -112 -10 -15 -5 -610 5 -698
5 -48 14 -134 20 -192 24 -235 76 -525 119 -665 5 -16 12 -46 16 -65 3 -19 10
-46 15 -60 5 -14 16 -52 25 -85 28 -101 99 -321 115 -360 4 -11 20 -53 34 -94
30 -82 29 -83 -31 -118 -18 -10 -119 -73 -225 -139 -106 -67 -207 -130 -225
-140 -113 -67 -681 -417 -743 -457 -41 -27 -100 -66 -130 -86 -97 -63 -214
-158 -260 -209 -125 -140 -174 -251 -240 -547 -6 -27 -15 -59 -20 -70 -9 -22
-40 -152 -105 -445 -9 -41 -36 -155 -61 -253 -24 -98 -44 -187 -44 -198 0 -10
-4 -27 -10 -37 -5 -9 -14 -42 -19 -72 -10 -55 -26 -125 -55 -250 -8 -36 -23
-96 -32 -135 -17 -76 -24 -105 -49 -205 -9 -36 -22 -94 -30 -130 -8 -36 -21
-96 -30 -135 -8 -38 -20 -88 -25 -110 -4 -22 -18 -74 -29 -115 -39 -149 -51
-225 -51 -342 0 -132 8 -177 53 -293 62 -163 171 -306 305 -402 110 -79 259
-173 602 -380 305 -183 249 -150 455 -276 94 -58 314 -192 490 -299 764 -465
825 -501 950 -553 22 -9 47 -20 55 -24 14 -7 110 -37 200 -61 149 -42 403 -59
847 -60 383 0 557 15 783 70 25 5 54 14 65 19 11 5 43 17 70 26 28 10 73 29
100 42 39 20 742 444 850 513 12 8 144 89 291 179 148 90 294 181 324 201 30
20 62 40 70 44 24 11 53 29 87 54 17 12 34 22 37 22 3 0 36 19 74 43 37 23 77
47 88 54 301 184 513 317 569 358 205 152 341 381 363 610 14 141 6 235 -31
390 -17 68 -37 160 -73 325 -32 143 -50 227 -70 310 -8 36 -19 90 -25 120 -5
30 -13 66 -18 80 -5 14 -17 61 -26 105 -9 44 -22 107 -30 140 -7 33 -20 96
-29 140 -9 44 -21 100 -26 125 -18 86 -62 282 -80 350 -5 19 -18 80 -30 135
-12 55 -25 116 -30 135 -5 19 -30 125 -55 235 -70 298 -94 363 -185 485 -98
132 -167 184 -605 450 -137 84 -320 196 -405 249 -187 116 -191 118 -210 127
-26 13 -555 335 -563 343 -7 7 12 66 47 146 7 17 21 53 31 80 9 28 20 57 25
65 4 9 11 30 14 48 4 17 12 35 17 38 6 3 36 -18 67 -48 70 -66 156 -132 242
-184 142 -86 205 -107 325 -107 96 -1 139 12 202 60 156 119 259 485 224 797
-13 116 -26 159 -84 276 -33 69 -59 103 -132 176 -154 155 -309 223 -630 276
-102 17 -380 17 -465 0 -154 -31 -277 -71 -363 -118 -15 -9 -38 -21 -50 -28
-191 -104 -406 -347 -528 -596 -29 -59 -95 -207 -130 -287 l-14 -33 -137 0
c-178 0 -284 -20 -421 -79 -27 -12 -54 -21 -60 -21 -9 0 -11 67 -9 261 3 263
-7 449 -32 634 -28 194 -75 429 -115 565 -6 19 -17 60 -25 90 -28 108 -141
433 -186 535 -5 11 -19 43 -30 70 -72 167 -169 340 -265 470 -117 158 -225
214 -326 167z m1533 -2888 c3 -3 -1 -26 -9 -52 -111 -349 -199 -826 -228
-1228 l-7 -91 36 -36 c20 -20 84 -65 143 -100 60 -35 167 -100 239 -144 72
-45 155 -89 185 -98 52 -16 56 -16 101 4 38 16 59 36 107 101 48 65 138 200
191 290 129 215 179 306 301 545 73 145 111 210 122 209 8 -1 220 -126 471
-278 250 -152 465 -282 478 -289 13 -7 34 -19 48 -28 31 -20 266 -158 294
-173 117 -64 195 -142 236 -233 26 -60 27 -165 2 -222 -32 -70 -109 -160 -170
-198 -31 -19 -181 -111 -332 -203 -438 -269 -832 -512 -1010 -625 -91 -57
-172 -107 -180 -111 -8 -4 -22 -13 -30 -19 -25 -21 -523 -320 -560 -336 -200
-90 -476 -121 -695 -80 -192 37 -249 60 -465 189 -64 37 -122 71 -130 75 -8 4
-22 11 -30 17 -17 12 -313 194 -522 323 -79 48 -150 92 -158 97 -8 5 -80 48
-159 95 -79 47 -192 117 -252 155 -59 39 -110 70 -113 70 -3 0 -60 33 -128 73
-68 41 -199 119 -293 175 -197 117 -270 172 -316 238 -75 110 -88 204 -40 307
48 105 108 151 481 377 184 112 371 226 415 255 44 28 105 66 135 85 341 207
413 250 421 250 5 0 26 -10 47 -23 50 -32 165 -77 292 -117 58 -17 114 -36
125 -40 43 -19 174 -60 189 -60 25 0 63 43 74 85 34 123 83 367 107 535 8 58
17 111 20 118 10 27 160 81 305 111 50 10 253 14 262 5z M3941 6050 c-179 -42
-331 -209 -332 -365 -1 -67 12 -102 56 -147 47 -50 82 -62 181 -63 86 0 95 2
167 38 228 116 310 365 163 495 -55 48 -143 64 -235 42z M4830 5534 c-135 -44
-249 -141 -294 -249 -20 -48 -23 -154 -4 -186 48 -87 113 -122 224 -123 78 0
91 3 184 47 42 20 146 130 168 178 28 61 37 135 22 189 -15 56 -91 134 -140
143 -37 8 -137 8 -160 1z"/>
</g>
</svg>
